<svg width="256" height="72" viewBox="0 0 256 72" fill="none" xmlns="http://www.w3.org/2000/svg">
<path d="M54.1739 41.2507C54.1739 44.9215 53.4882 48.1699 52.1167 50.9961C50.7452 53.8226 48.7921 56.0025 46.2573 57.5363C43.7399 59.0529 40.8666 59.8111 37.6375 59.8111C34.4083 59.8111 31.5437 59.0788 29.0438 57.6138C26.5438 56.1319 24.5907 54.0208 23.1844 51.2805C21.7954 48.5405 21.0663 45.3954 20.9969 41.8454V39.7256C20.9969 36.0375 21.674 32.789 23.0281 29.98C24.3996 27.1538 26.3529 24.9736 28.8875 23.4398C31.4396 21.9062 34.339 21.1393 37.5855 21.1393C40.7972 21.1393 43.6619 21.8976 46.1792 23.414C48.6965 24.9307 50.6496 27.0934 52.0386 29.9025C53.4447 32.6944 54.1566 35.8996 54.1739 39.5187V41.2507ZM44.877 39.6739C44.877 35.9342 44.2434 33.0993 42.976 31.1692C41.7261 29.2219 39.9292 28.2482 37.5855 28.2482C33.002 28.2482 30.5803 31.6603 30.3198 38.4847L30.2938 41.2507C30.2938 44.9386 30.9101 47.7735 32.1427 49.7554C33.3754 51.7373 35.207 52.7282 37.6375 52.7282C39.9465 52.7282 41.7261 51.7545 42.976 49.8071C44.2261 47.8597 44.8597 45.0593 44.877 41.4057V39.6739ZM68.7053 24.3705V31.3243H73.3406V37.3731H68.7053V50.169C68.7053 51.2202 68.8962 51.9527 69.2781 52.3663C69.6602 52.7798 70.4154 52.9867 71.5437 52.9867C72.4117 52.9867 73.1409 52.9351 73.7312 52.8315V59.0614C72.1515 59.5612 70.5022 59.8111 68.7834 59.8111C65.7626 59.8111 63.5315 59.1046 62.0907 57.6915C60.6496 56.2782 59.9292 54.1328 59.9292 51.2547V37.3731H56.3354V31.3243H59.9292V24.3705H68.7053ZM85.398 34.3228C87.273 31.979 89.6687 30.8073 92.5854 30.8073C95.693 30.8073 98.0369 31.7207 99.6166 33.5474C101.197 35.374 102.004 38.0711 102.039 41.6385V59.2941H93.2365V41.8454C93.2365 40.3632 92.9327 39.2775 92.3249 38.5882C91.7173 37.8816 90.6844 37.5283 89.226 37.5283C87.4206 37.5283 86.1444 38.0969 85.398 39.2343V59.2941H76.6219V19.5883H85.398V34.3228ZM120.554 59.8111C116.231 59.8111 112.733 58.5358 110.059 55.9853C107.386 53.4175 106.049 50.0828 106.049 45.9813V45.2575C106.049 42.3968 106.579 39.8721 107.638 37.6833C108.714 35.4948 110.276 33.8059 112.325 32.6167C114.374 31.4104 116.804 30.8073 119.617 30.8073C123.575 30.8073 126.7 32.0309 128.992 34.4779C131.283 36.9079 132.429 40.3029 132.429 44.6629V48.0492H114.981C115.294 49.6176 115.98 50.8498 117.039 51.7458C118.097 52.642 119.469 53.0901 121.153 53.0901C123.931 53.0901 126.101 52.1251 127.664 50.1948L131.674 54.8996C130.58 56.3989 129.026 57.5966 127.012 58.4928C125.016 59.3716 122.863 59.8111 120.554 59.8111ZM119.565 37.5283C116.995 37.5283 115.467 39.2172 114.981 42.595H123.836V41.9229C123.87 40.5269 123.514 39.4499 122.768 38.6916C122.021 37.9161 120.953 37.5283 119.565 37.5283ZM145.242 59.2941H136.44V19.5883H145.242V59.2941ZM159.929 59.2941H151.127V19.5883H159.929V59.2941ZM164.252 45.0506C164.252 42.2589 164.799 39.7773 165.893 37.6058C166.986 35.4172 168.558 33.7369 170.606 32.565C172.655 31.3931 175.059 30.8073 177.82 30.8073C182.039 30.8073 185.363 32.1084 187.794 34.7106C190.224 37.2956 191.44 40.8198 191.44 45.2834V45.5936C191.44 49.9536 190.216 53.4175 187.768 55.9853C185.337 58.5358 182.039 59.8111 177.872 59.8111C173.862 59.8111 170.641 58.622 168.21 56.2439C165.78 53.8484 164.469 50.6084 164.278 46.5241L164.252 45.0506ZM173.028 45.5936C173.028 48.1786 173.436 50.0743 174.252 51.2805C175.068 52.487 176.275 53.0901 177.872 53.0901C180.997 53.0901 182.594 50.7033 182.663 45.9297V45.0506C182.663 40.0358 181.049 37.5283 177.82 37.5283C174.886 37.5283 173.297 39.6911 173.054 44.0166L173.028 45.5936ZM196.596 56.7866C196.596 55.9595 196.839 55.2702 197.325 54.7188C197.828 54.1671 198.575 53.8914 199.565 53.8914C200.554 53.8914 201.301 54.1671 201.804 54.7188C202.325 55.2702 202.585 55.9595 202.585 56.7866C202.585 57.5795 202.325 58.2429 201.804 58.7772C201.301 59.3113 200.554 59.5785 199.565 59.5785C198.575 59.5785 197.828 59.3113 197.325 58.7772C196.839 58.2429 196.596 57.5795 196.596 56.7866ZM217.09 24.5516V31.3243H222.351V35.0208H217.09V52.3663C217.09 53.4865 217.325 54.3308 217.794 54.8996C218.263 55.451 219.061 55.7267 220.19 55.7267C220.745 55.7267 221.508 55.6234 222.481 55.4165V59.2941C221.214 59.6389 219.981 59.8111 218.784 59.8111C216.631 59.8111 215.008 59.165 213.914 57.8724C212.82 56.58 212.273 54.7446 212.273 52.3663V35.0208H207.143V31.3243H212.273V24.5516H217.09ZM251.804 45.6194C251.804 49.8761 250.822 53.3054 248.862 55.9078C246.899 58.51 244.243 59.8111 240.892 59.8111C237.472 59.8111 234.782 58.734 232.819 56.58V70.0478H228.002V31.3243H232.403L232.638 34.4262C234.598 32.0136 237.325 30.8073 240.815 30.8073C244.201 30.8073 246.874 32.0739 248.836 34.6072C250.814 37.1406 251.804 40.6648 251.804 45.18V45.6194ZM246.987 45.0765C246.987 41.9229 246.31 39.4325 244.956 37.6058C243.601 35.7792 241.743 34.8658 239.381 34.8658C236.465 34.8658 234.278 36.1495 232.819 38.7174V52.0819C234.261 54.6326 236.465 55.9078 239.435 55.9078C241.743 55.9078 243.575 55.0029 244.93 53.1934C246.3 51.3667 246.987 48.661 246.987 45.0765Z" fill="white"/>
<path d="M12.8 29.6471H0V42.353H12.8V29.6471Z" fill="#76993D"/>
<path d="M23.4667 6.35291H6.4V23.2941H23.4667V6.35291Z" fill="#B7CC94"/>
<path d="M42.6667 0H29.8667V12.7059H42.6667V0Z" fill="#76993D"/>
</svg>
